<svg preserveAspectRatio="none" overflow="visible" style="display: block;" width="5" height="6" viewBox="0 0 5 6" fill="none" xmlns="http://www.w3.org/2000/svg">
<path id="Vector" d="M2.45347 0.00142527C2.96038 -0.0261088 3.52899 0.348094 3.72456 0.881012C3.86795 1.27184 3.87484 1.79595 3.68624 2.1649C3.60163 2.33042 3.56561 2.47809 3.71145 2.62127C3.74661 2.65581 3.79341 2.68438 3.82917 2.71908C3.94273 2.83102 4.03206 2.97779 4.06765 3.14529C4.09039 3.27354 4.08267 3.4881 4.08267 3.62559L4.08252 4.33907L4.08267 4.55932C4.08284 4.59722 4.08154 4.63983 4.08506 4.67727C4.09364 4.76815 4.14197 4.84119 4.21862 4.87088C4.26896 4.89005 4.32397 4.88551 4.37135 4.85824C4.49062 4.78903 4.47817 4.62078 4.47477 4.4939C4.46405 4.29246 4.60174 4.26422 4.73861 4.32512C5.00782 4.44487 5.04891 4.73761 4.95298 5.01177C4.67977 5.79263 3.64512 5.6232 3.53164 4.81256C3.52002 4.72973 3.52322 4.65167 3.52328 4.57012V4.28955L3.52334 3.58069C3.52345 3.48676 3.53501 3.30352 3.50357 3.22246C3.48167 3.16633 3.44081 3.12258 3.39015 3.10111C3.25872 3.04593 3.21886 3.14378 3.23278 3.26837C3.23612 3.29838 3.23298 3.35837 3.23301 3.39038L3.23307 3.77931L3.23298 4.68558C3.23301 4.82238 3.22918 4.9832 3.23267 5.11852C3.23307 5.13966 3.23561 5.16064 3.24016 5.18113C3.2705 5.31298 3.38784 5.35199 3.44268 5.47164C3.52605 5.65351 3.45481 5.85962 3.29673 5.95178C3.06026 6.08959 2.77826 5.91542 2.70406 5.63737C2.67147 5.51517 2.67786 5.4054 2.67786 5.2798L2.67789 5.0137L2.67772 3.84751L2.67798 3.49043C2.67815 3.41345 2.68665 3.25296 2.65596 3.18836C2.63343 3.14198 2.59565 3.10765 2.5509 3.09286L2.54741 3.09175C2.52462 3.08543 2.50012 3.08566 2.4769 3.08903C2.41341 3.09823 2.35997 3.14274 2.33801 3.21225C2.31556 3.28336 2.32525 3.56105 2.32523 3.65141L2.32505 4.91669L2.32527 5.27414C2.32534 5.3679 2.32897 5.467 2.31558 5.55916C2.3026 5.64726 2.27069 5.73032 2.22267 5.80104C2.08342 6.00388 1.8219 6.07375 1.63822 5.90573C1.5706 5.84378 1.52777 5.75355 1.51937 5.65534C1.51008 5.54554 1.55406 5.44036 1.62463 5.36774C1.65383 5.33802 1.68226 5.31285 1.70784 5.27888C1.77081 5.19517 1.76562 5.11518 1.76561 5.01128L1.7655 4.81374L1.76542 4.15511L1.76552 3.49088L1.76571 3.29289C1.76577 3.2561 1.76705 3.21719 1.76415 3.18063C1.75481 3.06269 1.63982 3.07581 1.57302 3.1192C1.48584 3.17586 1.47034 3.27099 1.47165 3.37644C1.47245 3.44104 1.47191 3.50784 1.472 3.5726L1.47199 4.34633L1.4722 4.59388C1.47225 4.68734 1.47451 4.76939 1.45718 4.86191C1.43307 4.98791 1.38332 5.10572 1.31192 5.20593C1.19097 5.37687 1.01545 5.48657 0.823596 5.51118C0.622333 5.53576 0.422217 5.49763 0.257955 5.34839C0.0320744 5.14316 -0.125644 4.65315 0.135932 4.40566C0.213439 4.33236 0.393021 4.24403 0.483055 4.33674C0.554254 4.41005 0.517539 4.57539 0.526815 4.67294C0.541344 4.92134 0.824613 4.95881 0.90255 4.73519C0.926574 4.66411 0.917137 4.49586 0.917235 4.4108L0.917171 3.6464L0.916849 3.40321C0.916779 3.27459 0.916595 3.16391 0.960583 3.04154C1.01056 2.90248 1.08715 2.78408 1.19297 2.69278C1.23699 2.6548 1.28713 2.6206 1.32426 2.57357C1.47568 2.37183 1.31618 2.19945 1.24915 2.00549C1.19809 1.85775 1.17503 1.75517 1.16501 1.59851C1.13991 1.20597 1.21849 0.858725 1.44828 0.55841C1.64941 0.299685 1.91638 0.118352 2.21225 0.0395062C2.29411 0.0177723 2.36968 0.00819646 2.45347 0.00142527ZM2.96646 2.4967C3.03285 2.53866 3.11141 2.55218 3.18443 2.52777C3.39003 2.45907 3.4906 2.17449 3.43421 1.95114C3.42732 1.92391 3.41727 1.89835 3.39047 1.89705C3.35012 1.91721 3.29894 1.96603 3.26235 1.99748L3.09818 2.13857C3.0304 2.19683 2.96093 2.25568 2.89393 2.31509C2.88217 2.32551 2.86854 2.34324 2.86232 2.35881C2.86255 2.41352 2.92756 2.4732 2.96646 2.4967ZM2.04693 2.48826C2.08687 2.45571 2.12697 2.41985 2.14056 2.36286C2.12351 2.31864 2.08541 2.2952 2.05189 2.26646L1.92726 2.15971C1.8866 2.12482 1.63647 1.90182 1.6051 1.89408C1.5929 1.90303 1.58094 1.91388 1.57562 1.93003C1.49982 2.16038 1.61458 2.48257 1.83961 2.53361C1.90576 2.54861 1.99138 2.53349 2.04693 2.48826Z" fill="#6B7280"/>
</svg>
