<svg preserveAspectRatio="none" overflow="visible" style="display: block;" width="6.99745" height="5.47477" viewBox="0 0 6.99745 5.47477" fill="none" xmlns="http://www.w3.org/2000/svg">
<g id="Group 6">
<path id="Vector" d="M6.33229 0.007418C6.53785 -0.0153434 6.74327 0.0268699 6.88325 0.190042C7.01488 0.343502 6.99663 0.51134 6.99653 0.699206C6.99649 0.864568 7.01138 1.04173 6.8935 1.17555C6.81331 1.26666 6.71738 1.34492 6.62668 1.42619L6.13939 1.86408L5.49251 2.45134C5.39678 2.53882 5.2646 2.66918 5.16719 2.74819C5.2024 2.78602 5.25103 2.82306 5.28906 2.85931C5.36699 2.93373 5.45049 3.00332 5.52935 3.07597L6.45006 3.91363C6.51719 3.97464 6.58574 4.03432 6.65297 4.09562C6.75723 4.18904 6.88783 4.28334 6.94578 4.41502C6.99382 4.52422 6.98233 4.67909 6.98282 4.79736C6.98317 4.87508 6.98534 4.97511 6.97676 5.05116C6.96083 5.19251 6.85429 5.342 6.72754 5.40508C6.71023 5.41371 6.65608 5.44104 6.64103 5.44562C6.51842 5.48281 6.31502 5.48888 6.19863 5.43744C6.08051 5.40025 5.86789 5.1859 5.76747 5.09441L5.11881 4.50207L4.28134 3.74037C4.18783 3.65672 4.09491 3.57248 4.00254 3.4876C3.94059 3.43167 3.87499 3.37836 3.81852 3.31671C3.76249 3.25545 3.7258 3.18601 3.70765 3.10483C3.68546 3.00564 3.68437 2.50425 3.70341 2.40167C3.71544 2.33808 3.74 2.27751 3.77566 2.22347C3.8309 2.1383 3.93388 2.05534 4.01146 1.98628C4.07997 1.9254 4.14803 1.86402 4.2156 1.80214L5.14006 0.964363L5.79183 0.374244C5.87735 0.297264 5.96273 0.219195 6.048 0.1419C6.14073 0.0578284 6.21254 0.0322952 6.33229 0.007418Z" fill="#6B7280"/>
<path id="Vector_2" d="M0.560655 1.12142e-05C0.591687 -0.000117019 0.626966 0.00082498 0.657777 0.00436619C0.743881 0.0138258 0.82594 0.0459384 0.895595 0.0974338C0.929483 0.122351 0.958168 0.152357 0.989161 0.180687L1.1919 0.366339L1.85207 0.966361L2.71434 1.74999L2.95436 1.96576C3.0292 2.0318 3.14005 2.12352 3.19952 2.20046C3.24098 2.25398 3.26995 2.31608 3.2843 2.38224C3.32324 2.5536 3.29252 2.87682 3.2913 3.06079C3.29033 3.20623 3.15821 3.33176 3.05688 3.42117L2.85582 3.59878L2.18482 4.19447L1.30694 4.97881L1.03258 5.22403C0.972481 5.27774 0.911062 5.3355 0.847325 5.38418C0.618587 5.5201 0.308687 5.49495 0.122581 5.2953C-0.00925743 5.1539 0.000271284 4.98843 0.000577071 4.809C0.0007201 4.72782 -0.000483292 4.64467 0.00251539 4.56343C0.00816751 4.34919 0.139025 4.25188 0.28526 4.12226L0.615046 3.83088L1.81861 2.74923C1.77661 2.70593 1.71374 2.65301 1.66731 2.61124L1.39595 2.36622L0.539285 1.59084L0.295321 1.36916C0.0576358 1.15554 0.00310229 1.12795 0.000493235 0.799348L0 0.581918C0.000340311 0.407571 0.00797023 0.287081 0.13974 0.152934C0.254025 0.0365873 0.402553 0.000262748 0.560655 1.12142e-05Z" fill="#6B7280"/>
</g>
</svg>
