<svg preserveAspectRatio="none" overflow="visible" style="display: block;" width="8" height="7" viewBox="0 0 8 7" fill="none" xmlns="http://www.w3.org/2000/svg">
<path id="Vector" d="M1.26541 0.00288021C1.41818 -0.00188346 1.58115 0.000687864 1.73462 0.000733964L2.51469 0.000769761L4.90108 0.000800555L6.16138 0.000631575L6.52282 0.000682691C6.63034 0.000739036 6.74587 -0.00102294 6.85224 0.0141389C7.09247 0.0481914 7.31885 0.145626 7.50733 0.296092C7.78474 0.518028 7.95968 0.8404 7.99289 1.19062C8.00273 1.29048 7.99951 1.41323 7.99945 1.51572L7.99935 2.0139V3.65255L7.99945 5.09164L7.99956 5.50009C7.99956 5.63276 8.0032 5.75364 7.98258 5.8859C7.94515 6.12024 7.84399 6.34029 7.68977 6.52269C7.44485 6.81281 7.12053 6.96074 6.744 6.99604C6.60545 7.00264 6.44248 6.99901 6.30222 6.99896L5.55555 6.9989L3.2546 6.99885L1.92231 6.99896L1.53154 6.99911C1.38007 6.99916 1.26996 7.0029 1.11891 6.97847C0.869718 6.9379 0.63724 6.82895 0.448278 6.66406C0.187398 6.43607 0.0282025 6.11619 0.00511142 5.77367C-0.00164669 5.66298 0.00178965 5.52719 0.0019042 5.41414L0.00206039 4.82257L0.00202909 2.95943L0.00190944 1.78537C0.00180531 1.60304 -0.00839961 1.26973 0.0194503 1.10073C0.0601395 0.855982 0.170217 0.627505 0.337019 0.441568C0.574094 0.178685 0.908642 0.020598 1.26541 0.00288021ZM4.01862 6.12003C4.15639 6.12008 4.30764 6.11722 4.44436 6.12162C4.43926 6.05672 4.444 5.9428 4.4441 5.87365L4.44426 5.3917V3.83019V1.86135L4.4441 1.22444C4.444 1.1185 4.43999 0.981625 4.44546 0.877623L2.44085 0.876947L1.72534 0.876942C1.59412 0.876932 1.44883 0.873592 1.31926 0.878806C1.24708 0.886608 1.19769 0.891971 1.13259 0.92465C0.860809 1.06109 0.890195 1.30403 0.890159 1.55563L0.890143 2.07175L0.890346 3.68211L0.89045 5.06455L0.890075 5.47827C0.889945 5.55295 0.886577 5.65975 0.894126 5.73054C0.90608 5.84548 0.964232 5.95095 1.05564 6.02348C1.21124 6.14708 1.40431 6.12054 1.59291 6.12039L2.13832 6.11998L4.01862 6.12003ZM5.33364 6.12019C5.44189 6.11691 5.56304 6.12003 5.67238 6.12003L6.33049 6.11988C6.36189 6.11988 6.39344 6.12049 6.42483 6.12003C6.63242 6.11722 6.80621 6.1503 6.97074 5.99986C7.03546 5.93563 7.09393 5.84446 7.10242 5.75395C7.11627 5.60607 7.11038 5.43309 7.11012 5.28327L7.10991 4.39789L7.11023 1.36309C7.10908 1.14217 7.01651 0.953284 6.77737 0.892165C6.67532 0.866088 6.52074 0.876691 6.4114 0.876922L5.67915 0.877255C5.6047 0.877285 5.39524 0.882423 5.33432 0.875108C5.32823 1.4387 5.33344 2.01093 5.33349 2.57554L5.33364 6.12019Z" fill="#6B7280"/>
</svg>
